<?xml version="1.0" encoding="UTF-8" standalone="no"?>
<svg
   xmlns:dc="http://purl.org/dc/elements/1.1/"
   xmlns:cc="http://creativecommons.org/ns#"
   xmlns:rdf="http://www.w3.org/1999/02/22-rdf-syntax-ns#"
   xmlns:svg="http://www.w3.org/2000/svg"
   xmlns="http://www.w3.org/2000/svg"
   xmlns:sodipodi="http://sodipodi.sourceforge.net/DTD/sodipodi-0.dtd"
   xmlns:inkscape="http://www.inkscape.org/namespaces/inkscape"
   aria-hidden="true"
   focusable="false"
   data-prefix="fas"
   data-icon="terminal"
   class="svg-inline--fa fa-terminal fa-w-20"
   role="img"
   viewBox="0 0 994.92395 994.92395"
   version="1.1"
   id="svg4"
   sodipodi:docname="favicon.svg"
   inkscape:version="1.0.2 (e86c870879, 2021-01-15)"
   width="994.92395"
   height="994.92395">
  <metadata
     id="metadata10">
    <rdf:RDF>
      <cc:Work
         rdf:about="">
        <dc:format>image/svg+xml</dc:format>
        <dc:type
           rdf:resource="http://purl.org/dc/dcmitype/StillImage" />
        <dc:title></dc:title>
      </cc:Work>
    </rdf:RDF>
  </metadata>
  <defs
     id="defs8" />
  <sodipodi:namedview
     pagecolor="#343b2e"
     bordercolor="#666666"
     borderopacity="1"
     objecttolerance="10"
     gridtolerance="10"
     guidetolerance="10"
     inkscape:pageopacity="0"
     inkscape:pageshadow="2"
     inkscape:window-width="1326"
     inkscape:window-height="696"
     id="namedview6"
     showgrid="false"
     inkscape:zoom="0.4005097"
     inkscape:cx="815.67253"
     inkscape:cy="226.42091"
     inkscape:window-x="20"
     inkscape:window-y="52"
     inkscape:window-maximized="0"
     inkscape:current-layer="svg4"
     lock-margins="true"
     fit-margin-top="0"
     fit-margin-left="0"
     fit-margin-right="0"
     fit-margin-bottom="0"
     inkscape:document-rotation="0" />
  <circle
     style="fill:#ffffff;fill-opacity:1;stroke-width:1.58868"
     id="path835"
     cx="494.47449"
     cy="500.43164"
     transform="rotate(-0.34306266)"
     r="497.46198" />
  <path
     fill="currentColor"
     d="m 435.4435,511.60424 -194.343,194.343 c -9.373,9.373 -24.569,9.373 -33.941,0 l -22.668,-22.667 c -9.357,-9.357 -9.375,-24.522 -0.04,-33.901 l 154.022,-154.746 -154.021,-154.745 c -9.335,-9.379 -9.317,-24.544 0.04,-33.901 l 22.667,-22.667 c 9.373,-9.373 24.569,-9.373 33.941,0 l 194.343,194.343 c 9.373,9.372 9.373,24.568 0,33.941 z m 382.019,183.029 v -32 c 0,-13.255 -10.745,-24 -24,-24 h -304 c -13.255,0 -24,10.745 -24,24 v 32 c 0,13.255 10.745,24 24,24 h 304 c 13.255,0 24,-10.745 24,-24 z"
     id="path2"
     style="fill:#2b3a50;fill-opacity:1" />
</svg>
