<?xml version="1.0" standalone="no"?>
<!DOCTYPE svg PUBLIC "-//W3C//DTD SVG 20010904//EN"
 "http://www.w3.org/TR/2001/REC-SVG-20010904/DTD/svg10.dtd">
<svg version="1.0" xmlns="http://www.w3.org/2000/svg"
 width="700.000000pt" height="700.000000pt" viewBox="0 0 700.000000 700.000000"
 preserveAspectRatio="xMidYMid meet">
<metadata>
Created by potrace 1.14, written by Peter Selinger 2001-2017
</metadata>
<g transform="translate(0.000000,700.000000) scale(0.100000,-0.100000)"
fill="#000000" stroke="none">
<path d="M1524 5049 c-31 -9 -236 -207 -261 -252 -15 -27 -17 -96 -2 -134 5
-15 261 -279 567 -585 l557 -558 -557 -557 c-306 -307 -562 -571 -567 -586
-34 -90 -3 -156 137 -289 118 -111 173 -129 262 -82 40 21 1428 1416 1439
1447 15 40 13 104 -4 141 -8 17 -333 349 -722 738 -609 608 -714 708 -748 717
-46 13 -59 13 -101 0z"/>
<path d="M3374 2491 c-87 -40 -107 -98 -102 -291 3 -129 4 -139 30 -178 56
-83 -44 -77 1188 -80 798 -2 1106 0 1135 8 22 7 53 24 68 38 52 49 57 68 57
238 0 177 -9 208 -77 254 l-37 25 -1110 2 c-1065 3 -1113 2 -1152 -16z"/>
</g>
</svg>
