<?xml version="1.0" encoding="UTF-8" standalone="no"?>
<svg
   xmlns:dc="http://purl.org/dc/elements/1.1/"
   xmlns:cc="http://creativecommons.org/ns#"
   xmlns:rdf="http://www.w3.org/1999/02/22-rdf-syntax-ns#"
   xmlns:svg="http://www.w3.org/2000/svg"
   xmlns="http://www.w3.org/2000/svg"
   xmlns:sodipodi="http://sodipodi.sourceforge.net/DTD/sodipodi-0.dtd"
   xmlns:inkscape="http://www.inkscape.org/namespaces/inkscape"
   role="img"
   viewBox="0 0 24 24"
   version="1.1"
   id="svg42"
   sodipodi:docname="linkedin.svg"
   inkscape:version="1.0.2 (e86c870879, 2021-01-15, custom)">
  <metadata
     id="metadata48">
    <rdf:RDF>
      <cc:Work
         rdf:about="">
        <dc:format>image/svg+xml</dc:format>
        <dc:type
           rdf:resource="http://purl.org/dc/dcmitype/StillImage" />
      </cc:Work>
    </rdf:RDF>
  </metadata>
  <defs
     id="defs46" />
  <sodipodi:namedview
     pagecolor="#ffffff"
     bordercolor="#666666"
     borderopacity="1"
     objecttolerance="10"
     gridtolerance="10"
     guidetolerance="10"
     inkscape:pageopacity="0"
     inkscape:pageshadow="2"
     inkscape:window-width="1326"
     inkscape:window-height="696"
     id="namedview44"
     showgrid="false"
     inkscape:zoom="8.7504464"
     inkscape:cx="-13.530202"
     inkscape:cy="12.217925"
     inkscape:window-x="20"
     inkscape:window-y="52"
     inkscape:window-maximized="0"
     inkscape:current-layer="svg42"
     inkscape:document-rotation="0" />
  <title
     id="title38">LinkedIn icon</title>
  <path
     d="m 20.447,20.5 h -3.554 v -5.6 c 0,-1.3 -0.027,-3.1 -1.852,-3.1 -1.853,0 -2.136,1.5 -2.136,3 v 5.7 H 9.351 V 9 h 3.414 v 1.6 h 0.046 c 0.477,-0.9 1.637,-1.9 3.37,-1.9 3.601,0 4.267,2.4 4.267,5.5 v 6.3 z M 5.337,7.4 c -1.144,0 -2.063,-0.9 -2.063,-2 0,-1.2 0.92,-2.1 2.063,-2.1 1.14,0 2.064,0.9 2.064,2.1 0,1.1 -0.925,2 -2.064,2 z M 7.119,20.5 H 3.555 V 9 H 7.119 Z M 22.225,0 H 1.771 C 0.792,0 0,0.8 0,1.7 V 22.3 C 0,23.2 0.792,24 1.771,24 H 22.222 C 23.2,24 24,23.2 24,22.3 V 1.7 C 24,0.8 23.2,0 22.222,0 Z"
     id="path40"
     style="fill:#ffffff;fill-opacity:1" />
</svg>
