<?xml version="1.0" encoding="UTF-8" standalone="no"?>
<svg
   xmlns:dc="http://purl.org/dc/elements/1.1/"
   xmlns:cc="http://creativecommons.org/ns#"
   xmlns:rdf="http://www.w3.org/1999/02/22-rdf-syntax-ns#"
   xmlns:svg="http://www.w3.org/2000/svg"
   xmlns="http://www.w3.org/2000/svg"
   xmlns:sodipodi="http://sodipodi.sourceforge.net/DTD/sodipodi-0.dtd"
   xmlns:inkscape="http://www.inkscape.org/namespaces/inkscape"
   role="img"
   viewBox="0 0 24 24"
   version="1.1"
   id="svg6"
   sodipodi:docname="mega.svg"
   inkscape:version="1.0.2 (e86c870879, 2021-01-15, custom)">
  <metadata
     id="metadata12">
    <rdf:RDF>
      <cc:Work
         rdf:about="">
        <dc:format>image/svg+xml</dc:format>
        <dc:type
           rdf:resource="http://purl.org/dc/dcmitype/StillImage" />
        <dc:title>MEGA icon</dc:title>
      </cc:Work>
    </rdf:RDF>
  </metadata>
  <defs
     id="defs10" />
  <sodipodi:namedview
     pagecolor="#ffffff"
     bordercolor="#666666"
     borderopacity="1"
     objecttolerance="10"
     gridtolerance="10"
     guidetolerance="10"
     inkscape:pageopacity="0"
     inkscape:pageshadow="2"
     inkscape:window-width="1326"
     inkscape:window-height="696"
     id="namedview8"
     showgrid="false"
     inkscape:zoom="12.375"
     inkscape:cx="-0.076374146"
     inkscape:cy="9.9411255"
     inkscape:window-x="20"
     inkscape:window-y="52"
     inkscape:window-maximized="0"
     inkscape:current-layer="svg6" />
  <title
     id="title2">MEGA icon</title>
  <path
     d="M12 0C5.372 0 0 5.372 0 12s5.372 12 12 12 12-5.372 12-12S18.628 0 12 0zm6.23 16.244a.371.371 0 0 1-.373.372H16.29a.371.371 0 0 1-.372-.372v-4.828c0-.04-.046-.06-.08-.033l-3.32 3.32a.742.742 0 0 1-1.043 0l-3.32-3.32c-.027-.027-.08-.007-.08.033v4.828a.371.371 0 0 1-.372.372H6.136a.371.371 0 0 1-.372-.372V7.757c0-.206.166-.372.372-.372h1.076a.75.75 0 0 1 .525.22l4.13 4.13a.18.18 0 0 0 .26 0l4.13-4.13c.14-.14.325-.22.525-.22h1.075c.206 0 .372.166.372.372z"
     id="path4"
     style="fill:#ffffff;fill-opacity:1" />
</svg>
